<svg width="1482" height="2015" viewBox="0 0 1482 2015" fill="none" xmlns="http://www.w3.org/2000/svg">
<path d="M12.0275 1151C185.533 163.5 636.527 8.00022 720.027 8C803.527 7.99978 1038.53 7.99994 1305.52 600.5M12.0275 1151C493.527 1151 1061.53 939.999 1305.52 600.5M12.0275 1151C12.0275 1151 -91.9745 1973.5 757.027 2007C1183.53 2007 1473.53 1660.5 1473.53 1262C1473.53 995.466 1305.52 600.5 1305.52 600.5" stroke="black" stroke-width="15"/>
<path d="M12.0275 1151C185.533 163.5 636.527 8.00022 720.027 8C803.527 7.99978 1038.53 7.99994 1305.52 600.5C1061.53 939.999 493.527 1151 12.0275 1151Z" fill="url(#paint0_radial_52_17252)"/>
<path d="M1305.52 600.5C1061.53 939.999 493.527 1151 12.0275 1151C12.0275 1151 -91.9745 1973.5 757.027 2007C1183.53 2007 1473.53 1660.5 1473.53 1262C1473.53 995.466 1305.52 600.5 1305.52 600.5Z" fill="url(#paint1_radial_52_17252)"/>
<path d="M1305.52 599C1061.53 938.5 493.527 1149.5 12.0275 1149.5C12.0275 1149.5 -91.9745 1972 757.027 2005.5C1183.53 2005.5 1473.53 1659 1473.53 1260.5C1473.53 993.967 1305.52 599 1305.52 599Z" fill="black" fill-opacity="0.37"/>
<path d="M1305.52 599C1061.53 938.5 493.527 1149.5 12.0275 1149.5C12.0275 1149.5 -91.9745 1972 757.027 2005.5C1183.53 2005.5 1473.53 1659 1473.53 1260.5C1473.53 993.967 1305.52 599 1305.52 599Z" fill="black" fill-opacity="0.37"/>
<path d="M1305.52 599C1061.53 938.5 493.527 1149.5 12.0275 1149.5C12.0275 1149.5 -91.9745 1972 757.027 2005.5C1183.53 2005.5 1473.53 1659 1473.53 1260.5C1473.53 993.967 1305.52 599 1305.52 599Z" fill="black" fill-opacity="0.37"/>
<path d="M1305.52 599C1061.53 938.5 493.527 1149.5 12.0275 1149.5C12.0275 1149.5 -91.9745 1972 757.027 2005.5C1183.53 2005.5 1473.53 1659 1473.53 1260.5C1473.53 993.967 1305.52 599 1305.52 599Z" fill="black" fill-opacity="0.37"/>
<path d="M1305.52 599C1061.53 938.5 493.527 1149.5 12.0275 1149.5C12.0275 1149.5 -91.9745 1972 757.027 2005.5C1183.53 2005.5 1473.53 1659 1473.53 1260.5C1473.53 993.967 1305.52 599 1305.52 599Z" fill="black" fill-opacity="0.37"/>
<g clip-path="url(#clip0_52_17252)">
<path d="M1117.89 991.557L1117.6 991.553C1110.28 1018.85 1105.88 1047.31 1104.53 1076.13C1102.06 1135.34 1106.19 1171.43 1100.48 1209.75C1094.8 1248.06 1078.87 1285.63 1038.83 1344.36C991.197 1414.28 916.453 1467.86 830.642 1485.21C814.556 1498.29 797.603 1510.22 779.783 1520.84C845.962 1554.41 915.573 1557.1 971.073 1534.13C1068.86 1493.71 1061.72 1463.68 1106.42 1377.03C1119.25 1352.4 1134.88 1330.45 1152.75 1311.94C1197.78 1338.35 1242.22 1355.47 1270.13 1351.76C1285.67 1306.62 1270.99 1253.9 1246.16 1203.94C1268.14 1119.45 1237.52 1034.18 1167.7 1003.28C1149.47 995.216 1133.06 991.31 1117.89 991.523L1117.89 991.557ZM1169.01 1116.66C1172.86 1116.61 1176.66 1117.64 1180.14 1119.69C1183.63 1121.73 1186.71 1124.74 1189.19 1128.51C1191.45 1131.96 1193.15 1135.97 1194.2 1140.32C1195.25 1144.66 1195.63 1149.26 1195.32 1153.83C1195 1158.41 1193.99 1162.89 1192.36 1167C1190.72 1171.11 1188.49 1174.79 1185.78 1177.81C1183.08 1180.83 1179.96 1183.15 1176.6 1184.63C1173.24 1186.11 1169.71 1186.71 1166.2 1186.42C1162.69 1186.12 1159.28 1184.92 1156.16 1182.9C1153.04 1180.87 1150.27 1178.06 1148.01 1174.61C1145.75 1171.16 1144.05 1167.15 1143 1162.81C1141.95 1158.46 1141.57 1153.87 1141.88 1149.29C1142.2 1144.71 1143.21 1140.24 1144.84 1136.13C1146.48 1132.01 1148.71 1128.34 1151.42 1125.32C1156.34 1119.81 1162.6 1116.74 1169.01 1116.66ZM728.965 1488.25C729.737 1488.87 730.586 1489.42 731.383 1490.04L733.918 1488.82L728.965 1488.25Z" fill="#787878"/>
<path d="M775.282 460.023C737.275 459.267 698.025 478.569 663.989 520.657C619.269 575.867 604.971 625.904 611.882 688.692L613.765 705.908L600.664 702.926C504.237 681.247 384.465 690.06 247.421 760.233C287.171 783.12 360.118 821.454 440.991 873.589L466.617 890.159L438.429 897.259C330.447 924.364 201.682 1005.02 82.7355 1183.08C134.99 1178.46 241.857 1163.41 353.081 1165.07C414.899 1166 475.763 1172.37 525.191 1189.82C574.618 1207.24 619.252 1246.29 625.227 1274.55C631.202 1302.8 627.43 1317.61 620.891 1339.6C614.351 1361.59 594.66 1394.77 567.713 1416.57C540.765 1438.37 506.767 1457.23 471.429 1473.19C400.778 1505.15 325.761 1525.18 292.711 1528.76C285.69 1529.52 282.818 1532.77 280.036 1539.15C277.253 1545.55 275.645 1555.57 275.277 1566.11C274.837 1580.18 276.405 1587.56 279.346 1593.15C282.287 1598.75 287.035 1601.05 291.963 1601.56C499.099 1622.51 655.049 1556.35 768.397 1499.47C898.945 1423.55 982.763 1271.45 1002.28 1133.79C1014.55 1047.51 1012.68 1005.13 1002.41 968.957C992.126 932.746 971.946 900.443 946.608 838.981C930.337 799.438 921.457 760.769 916.126 724.791L914.976 717.214L919.659 712.425C968.307 662.826 1008.08 608.434 1022.77 568.71C994.206 527.891 943.972 518.705 887.583 525.852L882.953 526.403L879.763 522.056C850.285 481.768 813.288 460.848 775.282 460.023ZM790.966 553.611C807.457 553.482 821.832 568.62 825.506 589.996C829.859 615.145 817.983 640.222 799.031 645.948C789.827 648.603 780.218 646.383 772.316 639.777C764.414 633.171 758.867 622.719 756.894 610.72C752.541 585.571 764.391 560.494 783.343 554.768C785.836 554.016 788.41 553.629 790.966 553.611Z" fill="#ECECEC"/>
<path d="M1025.71 666.001C1012.91 665.553 1000.1 667.154 987.576 670.77L985.021 671.619C969.485 691.012 953.252 709.431 936.379 726.813C941.552 758.991 949.381 792.526 963.561 826.956C988.195 886.68 1008.72 918.681 1020.47 960.066C1032.22 1001.45 1033.73 1049.96 1021.21 1138.17C1005.69 1247.5 953.16 1362.87 871.087 1447.44C934.225 1424.31 988.351 1380.85 1024.53 1327.8C1063.51 1270.55 1076.7 1238.06 1081.61 1205.2C1086.5 1172.37 1082.75 1136.24 1085.35 1075.03C1086.97 1035.62 1093.85 1001.22 1102.42 970.98L1104.48 963.715L1110.36 962.773C1162.84 954.593 1210.4 937.737 1235.14 917.436C1227.87 871.192 1194.94 834.929 1151.07 807.173L1146.89 804.509L1145.91 798.562C1132.89 719.726 1086.52 668.439 1025.71 666.001ZM1054.89 763.524C1058.03 763.558 1061.13 764.227 1064.09 765.507C1071.8 768.835 1078.14 776.114 1081.72 785.743C1085.3 795.372 1085.82 806.562 1083.17 816.852C1081.85 821.952 1079.8 826.676 1077.12 830.754C1074.44 834.832 1071.19 838.185 1067.55 840.62C1063.92 843.056 1059.97 844.526 1055.94 844.947C1051.9 845.367 1047.86 844.731 1044.04 843.073C1036.33 839.738 1029.99 832.456 1026.42 822.828C1022.85 813.2 1022.33 802.014 1024.98 791.728C1027.12 783.474 1031.17 776.288 1036.55 771.216C1041.93 766.143 1048.35 763.449 1054.89 763.524Z" fill="#B2B2B2"/>
</g>
<path d="M1305.52 599C1061.53 938.5 493.527 1149.5 12.0275 1149.5C12.0275 1149.5 -91.9745 1972 757.027 2005.5C1183.53 2005.5 1473.53 1659 1473.53 1260.5C1473.53 993.967 1305.52 599 1305.52 599Z" fill="black" fill-opacity="0.37"/>
<defs>
<radialGradient id="paint0_radial_52_17252" cx="0" cy="0" r="1" gradientUnits="userSpaceOnUse" gradientTransform="translate(-385 -1019) rotate(70.4043) scale(3218.23 2359.38)">
<stop offset="0.297566" stop-color="#888888"/>
<stop offset="1"/>
</radialGradient>
<radialGradient id="paint1_radial_52_17252" cx="0" cy="0" r="1" gradientUnits="userSpaceOnUse" gradientTransform="translate(-385 -1019) rotate(70.4043) scale(3218.23 2359.38)">
<stop offset="0.297566" stop-color="#888888"/>
<stop offset="1"/>
</radialGradient>
<clipPath id="clip0_52_17252">
<rect width="1208.8" height="1166.19" fill="white" transform="translate(89.8906 451) rotate(0.731596)"/>
</clipPath>
</defs>
</svg>
